<svg xmlns="http://www.w3.org/2000/svg" viewBox="0 0 1024 1024">
  <defs>
    <linearGradient id="canopy" x1="160" y1="120" x2="850" y2="920" gradientUnits="userSpaceOnUse">
      <stop stop-color="#FDF6DC"/>
      <stop offset="1" stop-color="#D7D7A5"/>
    </linearGradient>
    <filter id="shadow" x="-20%" y="-20%" width="140%" height="150%">
      <feDropShadow dx="0" dy="34" stdDeviation="30" flood-color="#24362B" flood-opacity=".22"/>
    </filter>
  </defs>
  <rect x="48" y="48" width="928" height="928" rx="244" fill="url(#canopy)"/>
  <path d="M205 214h614c65 0 117 52 117 117v354c0 65-52 117-117 117H493L318 914l36-112H205c-65 0-117-52-117-117V331c0-65 52-117 117-117Z" fill="#24362B" filter="url(#shadow)"/>
  <circle cx="370" cy="456" r="116" fill="#F0A848"/>
  <circle cx="654" cy="456" r="116" fill="#6FAE62"/>
  <circle cx="330" cy="449" r="13" fill="#24362B"/>
  <circle cx="409" cy="449" r="13" fill="#24362B"/>
  <circle cx="614" cy="449" r="13" fill="#24362B"/>
  <circle cx="693" cy="449" r="13" fill="#24362B"/>
  <path d="M347 493c15 13 31 13 46 0M631 493c15 13 31 13 46 0" fill="none" stroke="#24362B" stroke-width="12" stroke-linecap="round"/>
  <path d="M217 634h590" fill="none" stroke="#8A6242" stroke-width="42" stroke-linecap="round"/>
  <path d="M280 650v87M744 650v87" stroke="#69482F" stroke-width="24" stroke-linecap="round"/>
  <path d="m796 311 16 52 51 16-51 16-16 52-16-52-51-16 51-16 16-52Z" fill="#F7D46B"/>
</svg>
